<svg id="Master_Layer" data-name="Master Layer" xmlns="http://www.w3.org/2000/svg" viewBox="0 0 512 512"><defs><style>.cls-1{fill-rule:evenodd;}</style></defs><title>icon-ss-ring</title><path id="ss-ring" class="cls-1" d="M77.77,243.56a4.4,4.4,0,0,0-4,2.4c-1.6,2.4,0,5.6,1.6,7.2a7.21,7.21,0,0,0,4,.8C85,252.36,86.57,242.76,77.77,243.56Zm1.6,7.2c-4,.8-4.8-3.2-.8-5.6,1.6,0,2.4.8,3.2,2.4C81.77,249.16,81,250.76,79.37,250.76ZM77.77,238c3.2-.8,5.6-3.2,7.2-6.4s.8-5.6,4-6.4c4-1.6,6.4,4,4.8,7.2-2.4,2.4-5.6,0-8,0l-1.6,1.6h0l.8,1.6V238c0,.8.8.8,1.6,1.6.8,0,1.6-.8,2.4-.8,2.4-.8,4.8,1.6,5.6,2.4h.8c.8-1.6-.8-2.4-.8-4,.8-3.2,3.2-4.8,3.2-8.8-.8-4-7.2-8.8-12-5.6-1.6.8-3.2,3.2-4.8,4-.8.8-1.6,0-2.4.8,0,1.6,1.6,2.4.8,4.8a5.44,5.44,0,0,1-6.4,3.2c-.8,0-.8,0-1.6-.8-3.2-2.4,0-8.8,5.6-7.2.8,0,1.6,0,1.6-1.6,0-4-3.2-2.4-5.6-1.6l-3.2-3.2H69c-.8,2.4.8,4,0,4.8a11.37,11.37,0,0,1-1.6,4.8C66.57,236.36,71.37,239.56,77.77,238Zm10.4,32c.8.8.8,2.4,2.4,3.2h0c3.2-2.4,0-12.8,0-16.8-.8-.8-.8-.8-1.6-.8-2.4,2.4-.8,6.4-2.4,8.8v.8h-4l-3.2.8-.8.8c-.8-2.4.8-7.2-1.6-8l-1.6-.8c-.8,1.6,0,8-1.6,8.8h-4c-.8,0-1.6.8-2.4.8h-.8c-2.4-.8.8-8-2.4-8.8h-.8c-1.6,1.6,0,12.8,0,15.2.8.8.8.8,1.6.8.8-.8,1.6-3.2,2.4-3.2Zm-16.8,21.6c4.8-.8,9.6-2.4,14.4-3.2l5.6,2.4h.8c.8-2.4.8-5.6-.8-7.2-2.4-6.4-5.6-8-14.4-8l-4,.8c-4,1.6-7.2,6.4-5.6,12.8,0,1.6.8,3.2.8,4.8v.8h1.6C70.57,293.16,70.57,292.36,71.37,291.56Zm2.4-12L77,278c4.8,0,9.6,1.6,9.6,6.4-2.4,1.6-12,4-15.2,3.2C69.77,284.36,70.57,281.16,73.77,279.56Zm.8-72.8c5.6.8,10.4,3.2,14.4,4.8,1.6.8,4,.8,4.8,2.4.8.8,0,1.6,0,3.2v.8h.8a27.09,27.09,0,0,0,4.8-12h-.8l-.8-.8c-.8.8-.8,2.4-2.4,3.2-.8.8-4.8-2.4-5.6-2.4,0-2.4,3.2-11.2,4.8-12,2.4.8,4.8,1.6,6.4,3.2-.8.8-.8,2.4-.8,3.2l.8.8h.8a40.19,40.19,0,0,0,4-10.4h0l-.8-.8c-.8.8-1.6,1.6-2.4,1.6-6.4-1.6-12.8-4.8-19.2-7.2-.8-.8,0-1.6-.8-2.4h0l-.8-.8a30.32,30.32,0,0,0-4.8,10.4l.8.8h.8c.8-.8,1.6-2.4,2.4-2.4,2.4-.8,8.8,1.6,9.6,3.2-1.6,3.2-3.2,9.6-5.6,12l-8.8-3.2c-.8-.8,0-.8,0-2.4l-.8-.8h-.8c-1.6.8-4,8-4,10.4v.8h.8C73,209.16,73.77,207.56,74.57,206.76Zm43.2,144h.8c.8-1.6,0-2.4-.8-3.2-1.6-3.2-4.8-10.4-7.2-12h-.8c-.8,0-1.6,0-1.6.8-.8,1.6,3.2,6.4,4,8a62.76,62.76,0,0,1-14.4,8.8c-1.6.8-2.4-.8-4.8-1.6a2.79,2.79,0,0,1-.8,1.6,70.35,70.35,0,0,0,4.8,8l.8.8h1.6l-.8-4,14.4-9.6C116.17,347.56,117,350,117.77,350.76ZM93,335.56c4-1.6,8.8-5.6,12-5.6,1.6.8,2.4.8,3.2,1.6h0l1.6-.8-4.8-9.6h-.8c-.8,1.6-.8,3.2-2.4,4-4.8,3.2-11.2,4.8-16,8-.8.8-3.2.8-4.8,1.6.8,1.6,4,8,5.6,8.8l.8-.8c0-1.6-.8-4,0-4.8C89,336.36,91.37,336.36,93,335.56ZM77.77,298c-.8,2.4.8,5.6,4,6.4a2.94,2.94,0,0,0,2.4.8c5.6-1.6,5.6-10.4-1.6-10.4C80.17,295.56,78.57,295.56,77.77,298Zm8,.8c0,2.4-.8,3.2-2.4,4-1.6,0-3.2-1.6-3.2-2.4,0-2.4.8-3.2,2.4-3.2C84.17,296.36,85.77,297.16,85.77,298.76Zm2.4,23.2c1.6-1.6,1.6-4.8,1.6-7.2l-.8-1.6c-.8-2.4.8-4.8,2.4-6.4,4.8-2.4,7.2,4.8,4.8,8-1.6,1.6-3.2,1.6-4.8,1.6-.8,0-.8,0-.8,1.6l3.2,3.2h1.6c3.2-2.4,2.4-1.6,6.4-1.6l1.6-.8V318a11,11,0,0,1-3.2-2.4v-4c-.8-4-3.2-7.2-8-7.2-3.2,1.6-5.6,2.4-7.2,5.6,0,.8-.8,1.6-.8,3.2-.8.8-2.4.8-2.4,1.6v.8c.8.8,2.4,1.6,3.2,4a4.26,4.26,0,0,1-4,5.6,1.5,1.5,0,0,1-2.4,0q-1.2,0-2.4-2.4c-2.4-4.8,2.4-5.6,4.8-8V314c-.8-1.6-2.4-2.4-4-3.2h0c-.8.8,0,2.4-.8,3.2-1.6.8-2.4,0-4.8,0l-.8,1.6v.8c0,.8.8.8,1.6,1.6,1.6,1.6,0,2.4.8,4s.8,3.2,2.4,4.8C79.37,331.56,86.57,325.16,88.17,322Zm-2.4-148a17.49,17.49,0,0,1,4-2.4c4,1.6,14.4,6.4,17.6,9.6a2.48,2.48,0,0,0-.8,1.6v1.6h.8c1.6-.8,5.6-8,5.6-10.4h0c-1.6,0-1.6.8-2.4,1.6-5.6-.8-9.6-4.8-13.6-6.4-2.4-.8-4.8-1.6-5.6-3.2-.8-.8.8-1.6,0-3.2h-.8a43.1,43.1,0,0,0-5.6,10.4C85,174,85,174,85.77,174Zm136.8-101.6c.8,1.6,4.8,16.8,4.8,19.2,0,1.6-2.4,2.4-3.2,3.2v.8l.8.8a7.21,7.21,0,0,0,4-.8c3.2-.8,12-2.4,13.6-4V90c-.8-1.6-7.2,0-9.6,0a10.15,10.15,0,0,1-.8-4.8l-1.6-2.4h0c2.4-1.6,6.4-.8,7.2-3.2v-.8l-.8-1.6-7.2.8c-1.6-2.4.8-4-3.2-5.6v-.8c1.6-2.4,9.6-2.4,9.6-4.8l-.8-.8h-1.6c-3.2,1.6-12.8,1.6-14.4,4.8v.8C220.17,71.56,221.77,71.56,222.57,72.36Zm30.4,7.2c0,3.2-3.2,4-4.8,6.4a1.72,1.72,0,0,0,1.6,1.6c3.2-.8,3.2-4,6.4-4.8h.8c1.6.8,3.2,4,5.6,4l.8-.8c0-3.2-4-4-4.8-7.2,1.6-1.6,4-2.4,4.8-4.8v-.8l-.8-.8H261c-.8.8-4.8,4-5.6,4-3.2,0-3.2-3.2-6.4-4l-1.6,1.6h0C249,76.36,251.37,77.16,253,79.56Zm-67.2,4.8c2.4,4.8,4,16.8,8,19.2,1.6,0,2.4-.8,4-1.6.8-.8.8-2.4,1.6-3.2,1.6-4.8,2.4-10.4,4-15.2.8-1.6.8-4,2.4-4.8,2.4,4,4.8,8.8,5.6,13.6.8,2.4-.8,3.2-.8,5.6l.8.8c.8,0,5.6-3.2,6.4-4l.8-.8c-1.6-.8-3.2-.8-4-2.4a39,39,0,0,1-2.4-5.6l-4.8-9.6c-.8-1.6-1.6-4-4-4-4,4-4,11.2-5.6,16.8a55.16,55.16,0,0,0-3.2,8l-.8.8c-1.6-1.6-4-12.8-4-15.2v-4h0c-1.6-1.6-6.4.8-7.2,1.6V82C183.37,82.76,185,82.76,185.77,84.36Zm-48,288.8.8-.8a.78.78,0,0,1,.8-.8c-2.4-1.6-4.8-5.6-8-5.6l-.8.8c0,.8,0,1.6.8,1.6-.8,1.6-11.2,8-13.6,8.8-1.6.8-4.8,2.4-5.6.8a51.73,51.73,0,0,1,7.2-12.8c1.6-1.6,1.6-4,4-4.8L125,362a2.79,2.79,0,0,0,1.6-.8v-1.6c-1.6-1.6-5.6-6.4-8-6.4h0c-.8,1.6.8,3.2-.8,6.4-3.2,4.8-5.6,10.4-8,15.2-.8,2.4-2.4,4.8-1.6,6.4l1.6.8c1.6.8,6.4-.8,8-1.6,6.4-2.4,12-4.8,18.4-7.2Zm-26.4-208.8,2.4,1.6c.8,1.6,0,4,0,4.8l.8.8h.8a7.26,7.26,0,0,0,2.4-5.6c-.8-2.4-4-2.4-4.8-4.8-1.6-2.4,0-5.6,2.4-7.2.8-.8,2.4-.8,3.2-.8,3.2.8,5.6,2.4,9.6,2.4l1.6-1.6v-.8c-3.2-3.2-9.6-4-14.4-3.2-3.2-3.2-2.4-6.4-8.8-6.4-5.6,2.4-9.6,4.8-9.6,12,1.6,1.6,4,2.4,5.6,3.2Zm-8-16a4.16,4.16,0,0,1,3.2-1.6c8.8-.8,4,11.2,0,10.4C101.77,156.36,98.57,151.56,103.37,148.36Zm13.6-15.2c3.2,2.4,14.4,10.4,16,13.6,0,1.6-1.6,1.6-1.6,3.2a.78.78,0,0,1,.8.8c1.6.8,3.2-2.4,4-4,2.4-2.4,8.8-7.2,7.2-12a5.4,5.4,0,0,0-3.2-4.8c-6.4-2.4-8.8,4-12,5.6h-.8c.8-2.4,3.2-3.2,4-5.6,1.6-3.2,0-7.2-3.2-8-.8-.8-1.6-.8-3.2-.8-.8.8-2.4.8-4,1.6a34.1,34.1,0,0,0-8.8,9.6C113,133.16,115.37,132.36,117,133.16Zm14.4,2.4a16.74,16.74,0,0,1,4.8-3.2c8,0,3.2,11.2-.8,10.4S129,138.76,131.37,135.56Zm-12-7.2c.8-2.4,2.4-3.2,4.8-4.8,7.2,0,5.6,8.8.8,10.4C121.77,134,118.57,130.76,119.37,128.36Zm33.6,0c4-2.4,6.4-8.8,4-12.8-2.4-5.6-6.4-8.8-13.6-8.8-3.2,1.6-5.6,1.6-6.4,4.8C132.17,121.16,143.37,132.36,153,128.36Zm-9.6-19.2c4.8,0,8.8,5.6,10.4,8.8.8,3.2,0,6.4-2.4,8s-5.6-.8-7.2-2.4C140.17,119.56,135.37,113.16,143.37,109.16Zm7.2-9.6h3.2c2.4,1.6,6.4,9.6,8.8,12,.8,1.6,2.4,3.2,3.2,4.8,0,1.6-2.4,2.4-2.4,4l.8.8a13.53,13.53,0,0,0,8-5.6h0c-.8-1.6-4.8-2.4-6.4-4-3.2-4,1.6-8,4.8-8.8,6.4-1.6,4.8,8.8,12,6.4.8,0,1.6-.8,3.2-1.6v-.8c-.8-.8-1.6,0-3.2,0-3.2-3.2-4-8-11.2-7.2-.8-.8,0-3.2,0-4.8-1.6-4-4-4.8-8-5.6l-3.2.8-4.8,4c-1.6,1.6-4,2.4-5.6,4l.8.8Zm7.2-4q1.2-2.4,4.8-2.4c7.2,0,7.2,8.8.8,9.6-3.2,0-5.6-1.6-5.6-4.8Zm265.6,235.2c6.4-1.6,4.8-10.4-2.4-10.4C413.77,323.56,416.17,333.16,423.37,330.76Zm-4.8-4.8c0-1.6,1.6-2.4,2.4-3.2,4,0,4.8,3.2,3.2,5.6C421.77,328.36,419.37,328.36,418.57,326Zm-18.4,24.8c-1.6,0-2.4.8-4,1.6l-4.8,5.6c-1.6-.8-1.6-1.6-4-1.6-1.6,1.6,1.6,4.8,4.8,4,1.6,0,2.4-2.4,4-3.2s4-2.4,5.6-2.4a4.16,4.16,0,0,1,3.2,1.6c5.6,3.2,3.2,9.6.8,13.6,0,2.4,2.4,4,4.8,4,3.2-1.6-1.6-2.4-1.6-4.8.8-1.6,3.2-4,4-6.4C414.57,356.36,405.77,350.76,400.17,350.76Zm20.8-14.4c-3.2-.8-10.4,1.6-11.2,3.2-1.6,1.6-1.6,4.8-5.6,4-2.4-.8-4-4-2.4-6.4,0-1.6,1.6-2.4,3.2-2.4,3.2-.8,4,2.4,5.6,3.2h.8l.8-.8v-1.6c0-1.6,1.6-1.6.8-3.2h0c-.8-2.4-3.2-.8-4.8-2.4-.8-1.6-1.6-3.2-3.2-4h-.8l-.8.8c0,.8.8,2.4.8,3.2,0,1.6-4.8,3.2-5.6,5.6a9.2,9.2,0,0,0,4,11.2,5.1,5.1,0,0,0,4.8,0c3.2-.8,4-2.4,7.2-2.4.8-1.6.8-4,2.4-4.8,2.4-1.6,5.6-1.6,7.2.8a2.94,2.94,0,0,1,.8,2.4c.8,2.4-3.2,5.6-6.4,4l-3.2-1.6c-1.6,0-2.4.8-3.2.8l2.4,4.8c4,0,4.8,0,5.6,3.2.8,0,.8.8,1.6.8,1.6-2.4.8-3.2,1.6-4.8.8-2.4,3.2-2.4,4-4.8C429.77,340.36,425,336.36,421,336.36Zm-34.4,28.8c-4,1.6-6.4.8-8,4-4,9.6,7.2,21.6,16.8,17.6,5.6-2.4,6.4-8,4-13.6A11.48,11.48,0,0,0,386.57,365.16Zm8.8,17.6c-7.2,4.8-20-11.2-11.2-15.2,6.4,1.6,9.6,3.2,12,8C397,378,397.77,381.16,395.37,382.76Zm66.4-127.2A123.86,123.86,0,0,0,461,238l-2.4-16.8v-4c-1.6-5.6-3.2-12.8-4.8-18.4-2.4-5.6-3.2-10.4-5.6-16l-1.6-4.8c0-.8-2.4-6.4-2.4-7.2l-4-5.6c-1.6-3.2-3.2-7.2-4.8-10.4l-4-5.6-2.4-4.8a204.82,204.82,0,0,0-16-20.8,139.87,139.87,0,0,0-37.6-34.4l-3.2-3.2-8.8-5.6-7.2-4.8a193,193,0,0,0-40-16.8l-9.6-2.4-6.4-.8c-4.8-1.6-12-.8-17.6-1.6-9.6-2.4-23.2-1.6-34.4-1.6l-20,1.6c-15.2,3.2-29.6,6.4-43.2,11.2-8,3.2-16,7.2-24,11.2l-5.6,4a127.33,127.33,0,0,0-17.6,10.4c-4.8,4-10.4,9.6-16,13.6l-3.2,4a83.58,83.58,0,0,0-16.8,16.8c-4.8,5.6-8.8,12-13.6,17.6-5.6,8.8-11.2,18.4-15.2,28-1.6,3.2-4,6.4-4.8,10.4-2.4,4.8-3.2,9.6-4.8,14.4s-3.19,9.6-4.79,13.6l-.8,3.2c-.8,5.6-2.4,10.4-3.2,15.2-.8,2.4,0,4.8-.8,7.2q-8.72,8.4,0,16.8v9.6l.8,15.2c.8,4,1.6,8.8,2.4,12.8,0,1.6.8,4,.8,5.6,0,6.4,2.4,12.8,4,18.4,4.79,12,8,23.2,13.59,33.6,4.8,8.8,8.8,17.6,14.4,25.6,3.2,4.8,8,9.6,12,14.4a88.22,88.22,0,0,0,16,18.4c1.6,1.6,3.2,4,5.6,5.6,8.8,7.2,17.6,14.4,28,20,3.2,1.6,5.6,4.8,8.8,5.6,2.4.8,4,2.4,6.4,3.2l6.4,3.2a25,25,0,0,0,8,4c3.2,1.6,6.4,2.4,10.4,4A45.1,45.1,0,0,0,201,454c4,.8,8.8,1.6,12,2.4,5.6,1.6,12,.8,16.8,1.6l3.2.8h4c6.4,1.6,14.4.8,21.6.8h16.8l12.8-1.6c15.2-3.2,30.4-5.6,44-11.2,52-21.6,90.4-58.4,113.6-108.8,2.4-4,2.4-8,4-12.8,3.2-6.4,5.6-14.4,8-21.6,1.6-5.6,1.6-10.4,3.2-16,1.6-4.8.8-12,1.6-18.4V266A45.62,45.62,0,0,0,461.77,255.56Zm-3.2,16-.8,12.8a231.83,231.83,0,0,1-9.6,33.6c-1.6,5.6-3.2,11.2-4.8,16-21.6,49.6-57.6,85.6-107.2,107.2a282.61,282.61,0,0,1-36.8,12c-8,1.6-15.2,1.6-23.2,3.2a202.26,202.26,0,0,1-22.4.8H245l-12.8-1.6H225c-11.2-1.6-21.6-3.2-31.2-6.4a247.38,247.38,0,0,1-69.6-41.6l-4.8-4.8-9.6-9.6-8.8-12-8.8-10.4c-10.4-15.2-18.4-32.8-24.8-52.8-10.39-31.2-15.19-75.2-4.79-109.6l4.79-13.6a96.72,96.72,0,0,0,4-14.4A287.39,287.39,0,0,1,85,153.16c26.4-40.8,63.2-72.8,113.6-88.8,12-3.2,24.8-4.8,39.2-7.2l12.8-.8c2.4,0,5.6,0,8-.8l12.8.8c15.2,2.4,30.4,2.4,44,6.4a184.59,184.59,0,0,1,22.4,8l7.2,4c14.4,6.4,25.6,15.2,37.6,24,7.2,4.8,13.6,11.2,19.2,17.6a34.79,34.79,0,0,1,4.8,5.6l8,10.4c16.8,19.2,28,42.4,36,69.6,3.2,10.4,4.8,22.4,7.2,33.6l.8,11.2v6.4A70.76,70.76,0,0,1,458.57,271.56Zm-14.4,32.8-2.4,1.6-9.6-2.4c-3.2-1.6-7.2-.8-9.6-2.4-.8-.8-1.6-3.2-2.4-4h-1.6c-1.6,5.6-3.2,10.4-4,16.8l.8.8c3.2,0,5.6-7.2,7.2-8l3.2,1.6c1.6,0,2.4-.8,3.2-.8v.8c.8,2.4-2.4,4-2.4,6.4a6.11,6.11,0,0,0,4,1.6c1.6-2.4,3.2-4.8,3.2-7.2h.8c2.4,1.6,4,1.6,5.6.8h.8c1.6,3.2-2.4,7.2-2.4,10.4l1.6.8h0c3.2-2.4,5.6-11.2,5.6-16C445,304.36,445,304.36,444.17,304.36Zm-64.8,91.2a114.47,114.47,0,0,1-8.8-12c-.8-2.4,0-3.2.8-5.6-.8,0-.8,0-1.6-.8a40.07,40.07,0,0,1-6.4,5.6c-2.4,1.6-5.6,3.2-7.2,5.6V390l1.6.8c.8,0,5.6-4.8,7.2-5.6,2.4.8,2.4,2.4,4,4,2.4,3.2,5.6,5.6,8,9.6-.8,1.6-1.6,2.4-1.6,4v.8c1.6.8,8.8-4.8,9.6-6.4v-.8C384.17,394.76,381,395.56,379.37,395.56Zm-229.6-4a17.42,17.42,0,0,0-4-6.4,6.25,6.25,0,0,1-3.2-3.2l1.6-2.4c0-.8,0-.8-.8-.8l-.8-.8-3.2,3.2c.8,4.8,6.4,8,4.8,12.8-.8,4.8-6.4,6.4-11.2,4.8l-4-3.2c-2.4,0-3.2,2.4-4.8,3.2v1.6c.8,0,.8.8,1.6.8,1.6,0,2.4-.8,4-1.6,1.6,1.6,4,3.2,6.4,3.2C142.57,404.36,150.57,398,149.77,391.56Zm288-116.8c-3.2-.8-7.2-.8-9.6-2.4l-2.4-4H425l-.8.8c-.8,2.4,0,4,0,5.6,2.4,1.6,7.2.8,8.8,3.2.8.8.8,2.4.8,4-.8,5.6-4,4-8.8,5.6l-4,1.6c0,.8-.8.8-.8,1.6l.8.8c7.2,1.6,10.4-1.6,14.4-4,2.4.8,3.2,2.4,5.6,3.2,7.2.8,12.8-8.8,8-15.2C447.37,273.16,441.77,274.76,437.77,274.76Zm4,12.8c-3.2.8-4.8-4-4-6.4,0-1.6,1.6-3.2,2.4-4l4.8.8C450.57,279.56,446.57,287.56,441.77,287.56Zm8.8-44h-.8c-.8.8-1.6,2.4-2.4,2.4l-7.2.8c-2.4.8-11.2,2.4-13.6,1.6l-2.4-3.2-.8.8c-1.6,1.6,0,14.4.8,16l1.6,1.6c2.4-.8,3.2-8,3.2-10.4,1.6-.8,1.6.8,4,.8l2.4-1.6h.8c.8,3.2-.8,5.6-.8,8.8a6.83,6.83,0,0,0,5.6,0l.8-.8c-.8-1.6-1.6-8.8.8-9.6.8,0,.8,0,1.6.8a4.7,4.7,0,0,0,4-1.6h0c1.6,3.2,0,8.8,2.4,10.4h1.6C452.17,257.16,452.17,244.36,450.57,243.56Zm-238.4,172v-.8l-9.6-2.4-.8.8c-.8.8.8,2.4.8,2.4,0,1.6-.8,2.4-2.4,3.2-.8.8-8-1.6-8.8-3.2,0-1.6,0-2.4,1.6-3.2.8-.8,2.4.8,3.2-1.6-4-2.4-8-4-12-4l-.8.8c0,2.4,2.4,2.4,3.2,4,.8,7.2-.8,15.2.8,21.6,0,1.6,0,4,1.6,4.8,2.4.8,4.8-3.2,5.6-4,5.6-4.8,8.8-10.4,12.8-16C209,417.16,211.37,417.16,212.17,415.56ZM191.37,434c-1.6-2.4,0-12.8.8-14.4l7.2,2.4C197.77,425.16,194.57,432.36,191.37,434Zm48-8c-.8,4.8-2.4,10.4-3.2,14.4h-.8c-1.6-3.2-2.4-7.2-4-11.2-.8-2.4,0-4.8-2.4-6.4-2.4.8-3.2,3.2-4,4.8a51.36,51.36,0,0,1-8,10.4h-.8v-.8c0-4.8,0-10.4,1.6-16,.8-1.6,4-.8,4-4-2.4-.8-4.8-1.6-7.2-.8h0c-1.6,1.6,0,2.4-.8,4,0,6.4-.8,12-.8,18.4-.8,1.6-2.4,4.8-.8,5.6,1.6,1.6,4-1.6,4.8-2.4,2.4-2.4,5.6-4.8,8-7.2.8-.8,1.6-2.4,2.4-2.4,1.6.8,1.6,3.2,1.6,4a43.1,43.1,0,0,0,5.6,10.4c1.6,0,2.4,0,3.2-.8,2.4-3.2,4.8-13.6,5.6-18.4.8-2.4,2.4-2.4,2.4-4.8a6.22,6.22,0,0,0-6.4-1.6C237.77,422.76,240.17,423.56,239.37,426Zm-60-23.2c-3.2-1.6-6.4-4.8-9.6-4.8l-.8.8h0c0,1.6,1.6,2.4,2.4,4,0,4-4.8,11.2-7.2,13.6-.8,1.6-.8,3.2-1.6,4.8-3.2-.8-4.8-2.4-8-3.2-.8-.8-3.2,1.6-3.2,2.4l.8,1.6,2.4-.8c4,.8,8,4.8,11.2,6.4s5.6,1.6,5.6,5.6H173a6.11,6.11,0,0,0,1.6-4c-1.6-2.4-5.6-3.2-7.2-5.6-.8-1.6,1.6-3.2,2.4-4,.8-2.4,6.4-13.6,7.2-13.6.8-.8,3.2-.8,4-.8a.78.78,0,0,0,.8-.8C182.57,403.56,180.17,402.76,179.37,402.76Zm-29.6,9.6a21.21,21.21,0,0,1,4-4.8c1.6-3.2,4-5.6,5.6-8,.8-1.6,1.6-3.2,3.2-4,.8,0,2.4.8,3.2,0,0-1.6-8-7.2-9.6-7.2v.8c-1.6.8,0,1.6.8,3.2-3.2,4.8-5.6,8.8-9.6,13.6-.8,1.6-4,3.2-4.8,4.8v.8c1.6,1.6,4,4,7.2,4.8.8,0,.8,0,.8-.8C150.57,414,149.77,414,149.77,412.36Zm187.2-3.2c-1.6.8-4,1.6-4.8,3.2-.8,3.2.8,5.6,4,6.4a2.43,2.43,0,0,0,3.2,0C345,417.16,342.57,408.36,337,409.16Zm3.2,6.4c-.8,1.6-3.2,1.6-4.8.8h0c-2.4-2.4,0-4.8,2.4-5.6C339.37,411.56,341.77,413.16,340.17,415.56Zm24-.8c-3.2-2.4-4.8-6.4-6.4-8.8-2.4-3.2-5.6-4.8-6.4-8.8,0-1.6,1.6-1.6,1.6-4l-1.6-.8h-.8c-3.2,2.4-5.6,4-8.8,6.4-.8.8-3.2,1.6-4,3.2v.8l.8.8c2.4.8,6.4-1.6,8.8-1.6.8.8.8,1.6,1.6,2.4.8,1.6,3.2,1.6,4,3.2-1.6,1.6-6.4,3.2-7.2,4.8,0,.8.8,1.6,1.6,2.4,1.6.8,5.6-2.4,8.8-3.2l2.4,4c0,.8.8.8,1.6,1.6-1.6,2.4-7.2,4-8,6.4v.8a.78.78,0,0,1,.8.8c1.6,0,3.2-1.6,4-1.6,2.4-1.6,8.8-4.8,10.4-8l-1.6-.8Zm-89.6,5.6c-2.4,1.6-8.8-.8-9.6,2.4,1.6,1.6,2.4,1.6,2.4,4.8-2.4,2.4-6.4,1.6-9.6,2.4a6.11,6.11,0,0,1-1.6-4c.8-1.6,2.4-1.6,3.2-3.2l-.8-.8c-1.6-.8-9.6,0-11.2.8v1.6c.8,0,2.4.8,2.4,1.6,5.6,7.2,6.4,18.4,12.8,24,2.4-.8,3.2-4,4-6.4,2.4-4,4-8.8,5.6-13.6l1.6-7.2,2.4-1.6v-.8ZM263.37,446c-.8,0-.8-2.4-1.6-2.4a45.1,45.1,0,0,1-3.2-9.6l.8-.8,6.4-.8h.8v.8C265.77,434.76,264.17,445.16,263.37,446Zm62.4-33.6a15.82,15.82,0,0,0-8-1.6c-3.2,1.6-8,1.6-9.6,4a11.56,11.56,0,0,0,1.6,5.6c0,1.6-1.6,1.6-3.2,2.4v.8l.8.8c3.2,0,6.4-1.6,8.8-3.2.8-2.4-1.6-4-.8-5.6s4.8-.8,6.4-.8c4,.8,5.6,4,4,8-.8,4.8-7.2,6.4-11.2,8-1.6.8-2.4.8-2.4,1.6-.8,1.6,2.4,5.6,3.2,5.6l.8.8V438c.8-1.6,0-4,1.6-4.8.8-.8,3.2-.8,4.8-1.6,2.4-.8,4.8-3.2,7.2-5.6C332.17,420.36,329,414,325.77,412.36Zm-24,5.6v-1.6h-1.6c-1.6.8-4,.8-4.8,2.4s.8,1.6.8,3.2c1.6,6.4,0,8-5.6,8.8a2.94,2.94,0,0,1-2.4-.8c-3.2-2.4-3.2-8.8-8.8-8.8a.78.78,0,0,0-.8.8c0,.8.8,1.6.8,2.4,2.4,6.4,4,5.6,8.8,9.6l-1.6,3.2a8.8,8.8,0,0,0,4.8,8c4.8,2.4,12.8-1.6,13.6-4.8,0-.8-.8-1.6-.8-3.2C302.57,433.16,297,422,301.77,418Zm-5.6,24.8c-4,0-7.2-3.2-5.6-6.4.8-2.4,2.4-3.2,4.8-4C302.57,432.36,303.37,441.16,296.17,442.76ZM277,91.56c3.2.8,4.8,4,10.4,2.4.8-.8,2.4-1.6,2.4-3.2,4-5.6.8-7.2-2.4-11.2-.8-.8,0-2.4-.8-3.2-1.6,0-3.2,1.6-4.8.8-3.2-.8-5.6-5.6-2.4-7.2,6.4-4.8,7.2,4,10.4,5.6a2.48,2.48,0,0,1,1.6.8c2.4-3.2-1.6-3.2-.8-6.4,0-.8,1.6-.8,1.6-2.4l-.8-.8c-1.6-.8-2.4.8-4,0s-4-.8-6.4-.8c-11.2,4.8-4.8,13.6,2.4,17.6.8,0,2.4-.8,3.2,0,3.2,2.4,1.6,7.2-1.6,8-1.6.8-2.4,0-3.2-.8-2.4-1.6-.8-4.8,0-7.2l-.8-.8c-1.6-.8-2.4.8-3.2.8h-2.4l-1.6,1.6c.8.8.8,2.4,1.6,3.2-.8,2.4-3.2,2.4-3.2,4.8C272.17,94,275.37,92.36,277,91.56Zm135.2,91.2c-1.6,0-4-3.2-4.8-.8-.8,1.6.8,2.4,1.6,4,.8,2.4,4,11.2,5.6,11.2.8,0,1.6-.8,2.4-.8,0-1.6-2.4-6.4-3.2-7.2,0-4,8.8-5.6,11.2-7.2l4-1.6,3.2,1.6c.8,0,.8,0,1.6-.8-.8-1.6-3.2-8-4.8-8l-.8-.8v3.2c-4.8,2.4-8.8,4.8-13.6,6.4Zm20.8,16.8c-4,1.6-8,4-12,4.8-1.6-1.6-3.2-4-5.6-1.6.8,1.6,4.8,9.6,5.6,9.6v.8l.8-.8c.8-.8,0-3.2,1.6-3.2l4.8-1.6c2.4-1.6,10.4-5.6,12.8-4.8,1.6,0,1.6,1.6,3.2,1.6l.8-.8c0-1.6-4-11.2-4.8-11.2-1.6,1.6,0,3.2-1.6,4.8C437.77,198,434.57,198.76,433,199.56Zm10.4,20.8-5.6.8c-4,1.6-9.6,2.4-13.6,3.2-1.6-1.6-2.4-3.2-4-4-.8-.8-.8,0-1.6.8l1.6,6.4c.8,6.4,0,10.4,6.4,12a10.15,10.15,0,0,0,4.8-.8c4.8-1.6,2.4-7.2,2.4-11.2h.8c0,8.8,8,13.6,13.6,6.4,2.4-4,0-11.2-.8-16a.78.78,0,0,0-.8-.8C445,218,445,219.56,443.37,220.36Zm-15.2,16c-5.6,1.6-7.2-7.2-.8-9.6C433,226.76,432.17,235.56,428.17,236.36Zm13.6-1.6c-3.2,0-5.6-4-4.8-7.2.8-2.4,3.2-2.4,4.8-3.2C448.17,224.36,446.57,234.76,441.77,234.76ZM417,176.36c5.6-1.6,4-10.4-3.2-10.4C406.57,170,410.57,178.76,417,176.36Zm-2.4-8c2.4,0,3.2.8,3.2,3.2.8,2.4-3.2,3.2-4.8,2.4C410.57,172.36,412.17,169.16,414.57,168.36Zm-61.6-72c-3.2,4-5.6,8.8-9.6,13.6h-4l-.8.8c.8,1.6,4,3.2,5.6,4,2.4,1.6,5.6,4,8,5.6s3.2,4,5.6,5.6c.8.8,4.8,3.2,6.4,2.4.8,0,.8,0,.8-.8l.8-.8c-2.4-2.4-5.6-3.2-7.2-5.6,0-2.4,9.6-13.6,11.2-14.4.8,0,2.4.8,3.2.8a.78.78,0,0,1,.8-.8V106c-1.6-.8-8-6.4-9.6-5.6s1.6,2.4.8,4.8c-1.6,3.2-5.6,6.4-7.2,9.6-1.6.8-2.4,2.4-3.2,3.2a44.38,44.38,0,0,1-6.4-4.8c0-3.2,5.6-8,7.2-11.2.8-.8,1.6-2.4,3.2-3.2H361l.8-.8v-.8a84.32,84.32,0,0,0-8.8-5.6l-.8.8C352.17,94,353,94.76,353,96.36Zm-36.8,4.8c.8.8,4.8,2.4,5.6,1.6,1.6-.8,1.6-4.8,3.2-5.6h3.2a2.79,2.79,0,0,0,.8-1.6c-1.6-1.6-7.2-3.2-9.6-3.2-1.6.8-2.4,3.2-2.4,4.8h-.8c-1.6,0-3.2-1.6-4.8-2.4-3.2-4.8.8-10.4,4-11.2,4-1.6,8.8,3.2,13.6,3.2.8-.8,3.2-4,2.4-5.6a1.72,1.72,0,0,0-1.6-1.6c-1.6.8-2.4,3.2-4,3.2l-4-1.6a15.07,15.07,0,0,0-6.4-1.6c-3.2,2.4-6.4,3.2-8,6.4C304.17,94.76,310.57,99.56,316.17,101.16Zm72,42.4c-1.6,1.6-4.8,1.6-5.6,4,.8,1.6,2.4,2.4,4,3.2.8,0,3.2-3.2,4-4l7.2-4.8c.8-1.6,2.4-2.4,4-3.2h0a6.91,6.91,0,0,1-2.4,4.8c-.8,3.2-1.6,6.4-3.2,8.8-.8.8-.8,2.4-.8,3.2l.8.8a28.42,28.42,0,0,0,8-1.6l6.4-.8,4-.8h.8c-4,4-9.6,7.2-13.6,11.2-1.6,0-1.6-1.6-3.2-.8a1.72,1.72,0,0,0-1.6,1.6c-.8.8,4,5.6,5.6,5.6.8-.8.8-2.4,1.6-3.2,3.2-4,7.2-6.4,11.2-10.4,1.6-1.6,4.8-3.2,5.6-5.6,0-1.6-.8-2.4-1.6-2.4-4-1.6-12.8,2.4-16.8.8h0c-.8-4.8,5.6-12,4-16.8l-.8-.8H405l-7.2,4Zm-57.6-39.2c-.8.8-2.4-.8-4-.8l-.8,1.6v.8a28,28,0,0,0,11.2,4.8l.8-.8c0-1.6-1.6-1.6-2.4-3.2.8-3.2,3.2-5.6,4-7.2,1.6-3.2,3.2-7.2,4.8-10.4h3.2l.8-.8v-.8c-.8-.8-9.6-5.6-12-5.6v1.6l3.2,2.4Zm44.8,16c-1.6,5.6-4.8,12-4.8,18.4,1.6,2.4,6.4,0,8.8-.8l9.6-4.8c2.4-1.6,5.6-4.8,8-4.8l3.2.8.8-.8v-1.6c-1.6-1.6-6.4-5.6-8.8-6.4l-.8,1.6c-.8.8-.8,1.6,0,3.2-.8.8-2.4,1.6-3.2,3.2-4,3.2-7.2,6.4-12.8,8h-.8c.8-4.8,3.2-8,4.8-12,.8-1.6,1.6-4.8,3.2-5.6.8-.8,1.6,0,3.2,0h0c0-.8.8-.8.8-1.6a56,56,0,0,0-8-6.4H377c-.8,1.6.8,1.6.8,3.2C376.17,116.36,376.17,118,375.37,120.36ZM305,98l-2.4-2.4.8-5.6c1.6-5.6,2.4-12,5.6-16h0c-.8-.8-8.8-3.2-10.4-3.2,0,.8,0,.8-.8,1.6.8.8,2.4.8,2.4,1.6.8,1.6-.8,4-.8,4.8-.8,4.8-2.4,10.4-3.2,14.4-.8.8-1.6.8-3.2.8,0,.8-.8.8-.8,1.6,4,1.6,7.2,3.2,11.2,3.2A2.79,2.79,0,0,0,305,98Zm109.6,148.8c0-1.6-.8-3.2-.8-5.6-1.6-9.6-2.4-20-5.6-28.8-4.8-16.8-11.2-31.2-20-44A175.72,175.72,0,0,1,377,154a132.84,132.84,0,0,0-10.4-11.2l-5.6-5.6a220,220,0,0,0-22.4-15.2c-10.4-8-23.2-13.6-36-17.6-4-1.6-7.2-.8-12-2.4-11.2-2.4-26.4-2.4-40-2.4l-16,1.6c-12,2.4-22.4,4.8-32.8,8.8a162.69,162.69,0,0,0-90.4,88c0,1.6-.8,4-.8,5.6-4,9.6-6.4,19.2-8.8,29.6a51.78,51.78,0,0,0-.8,19.2l-.8,4.8c.8,4,0,8,.8,12.8,1.6,8,2.4,16.8,4.8,24.8a139.14,139.14,0,0,0,22.4,51.2c2.4,3.2,5.6,6.4,8,9.6l5.6,8,3.2,3.2,2.4,2.4,7.2,7.2c6.4,5.6,14.4,10.4,21.6,15.2l4,3.2,19.2,9.6a136.82,136.82,0,0,0,24,7.2c6.4,1.6,13.6.8,20,1.6a129.62,129.62,0,0,0,17.6.8h7.2l13.6-1.6c10.4-1.6,20.8-4.8,31.2-8a141.79,141.79,0,0,0,24.8-12,171.93,171.93,0,0,0,32.8-25.6c13.6-14.4,25.6-32,32.8-50.4,4.8-11.2,7.2-23.2,10.4-36,1.6-4.8.8-9.6,1.6-15.2A141.62,141.62,0,0,0,414.57,246.76Zm-5.6,38.4c-4.8,20.8-11.2,39.2-21.6,54.4-2.4,2.4-3.2,4.8-4.8,7.2l-6.4,8c-1.6,1.6-9.6,10.4-11.2,12,0,0-12.8,11.2-19.2,15.2a141.65,141.65,0,0,1-42.4,21.6c-7.2,2.4-14.4,3.2-22.4,4.8s-16,1.6-24,1.6h-9.6l-18.4-2.4-20-4c-12.8-4-24-11.2-34.4-17.6-8.8-5.6-20.8-13.6-27.2-21.6,0,0-4.8-6.4-5.6-8a76.08,76.08,0,0,1-12-16c-5.6-8.8-11.2-18.4-15.2-28.8-9.6-24-14.4-64.8-5.6-93.6,4.8-13.6,9.6-28.8,17.6-40,4-8,9.6-14.4,14.4-21.6,0,0,9.6-10.4,12-11.2,4-4,8-8,12.8-11.2l8.8-7.2c16-9.6,32.8-16.8,50.4-20.8l16.8-2.4,8-.8c15.2,0,28.8.8,41.6,3.2l8.8,2.4c17.6,4.8,34.4,13.6,49.6,24.8,5.6,4,9.6,8.8,14.4,12l4,4s8.8,11.2,10.4,12.8c6.4,8,12,16,16,25.6a86.7,86.7,0,0,1,6.4,15.2c4,9.6,6.4,20,8.8,32,0,4,.8,8,.8,12v5.6C412.17,262.76,410.57,276.36,409,285.16Z"/></svg>